<svg width="221" height="25" viewBox="0 0 221 25" fill="none" xmlns="http://www.w3.org/2000/svg">
<path d="M143.696 11.157L107.406 7.207C105.732 7.01839 104.806 6.76579 104.827 6.50359C104.848 6.2414 105.814 5.99058 107.518 5.80518C109.221 5.61977 111.525 5.5146 113.934 5.51232C116.343 5.51004 118.664 5.61084 120.397 5.793L172.371 11.45C173.227 11.5426 173.906 11.6528 174.37 11.7741C174.833 11.8955 175.072 12.0256 175.072 12.157C175.072 12.2884 174.833 12.4185 174.37 12.5398C173.906 12.6612 173.227 12.7713 172.371 12.864L120.397 18.521C119.549 18.6165 118.536 18.6927 117.415 18.7451C116.294 18.7975 115.088 18.8251 113.868 18.8262C112.648 18.8274 111.439 18.8021 110.309 18.7518C109.18 18.7015 108.155 18.6273 107.292 18.5334C106.429 18.4395 105.747 18.3278 105.285 18.2049C104.823 18.0821 104.591 17.9504 104.601 17.8176C104.612 17.6848 104.865 17.5536 105.347 17.4316C105.828 17.3096 106.528 17.1992 107.406 17.107L143.696 13.157H55.625C53.1883 13.157 50.8514 13.0516 49.1285 12.8641C47.4055 12.6766 46.4375 12.4222 46.4375 12.157C46.4375 11.8918 47.4055 11.6374 49.1285 11.4499C50.8514 11.2624 53.1883 11.157 55.625 11.157H143.696V11.157Z" fill="white"/>
</svg>
