<svg width="22" height="20" viewBox="0 0 22 20" fill="none" xmlns="http://www.w3.org/2000/svg">
<path d="M16.8346 7.52962L18.3802 6.05623C20.3531 7.14126 21.6667 8.64067 21.6667 10.3022C21.6667 13.6194 16.4608 16.3009 11.1667 16.3079C10.0893 16.3078 9.01495 16.2005 7.96101 15.9876L9.79536 14.24C10.2427 14.284 10.7005 14.307 11.1635 14.306H11.1656C10.7299 14.306 10.3099 14.243 9.91506 14.1258L11.9951 12.142C12.4886 11.9398 12.8845 11.5624 13.0976 11.092L15.1766 9.10911C15.3724 9.7068 15.4183 10.3399 15.3108 10.9576C15.2033 11.5753 14.9453 12.1603 14.5576 12.6657C14.1699 13.1712 13.6632 13.5828 13.0783 13.8677C12.4934 14.1526 11.8466 14.3027 11.1898 14.306C15.647 14.291 19.5667 12.12 19.5667 10.3022C19.5667 9.35835 18.4936 8.31436 16.8346 7.52962ZM7.06746 11.1781C6.92986 10.5929 6.93189 9.98579 7.07341 9.40149C7.21493 8.8172 7.49233 8.27067 7.88511 7.80227C8.27789 7.33387 8.77603 6.95556 9.34274 6.69527C9.90945 6.43499 10.5303 6.29938 11.1593 6.29846C6.73041 6.28345 2.76666 8.47852 2.76666 10.3022C2.76666 11.1991 3.71586 12.181 5.21001 12.9487L3.67911 14.4061C1.85736 13.3331 0.666664 11.8887 0.666664 10.3022C0.666664 6.98511 5.89986 4.27956 11.1667 4.29657C12.1264 4.29958 13.085 4.39066 14.0111 4.55882L12.1453 6.3365C11.8408 6.31448 11.5321 6.30147 11.2213 6.29846C11.5174 6.30247 11.8061 6.3355 12.0854 6.39455L7.06641 11.1781H7.06746ZM20.7133 1.00046C20.9101 1.18817 21.0207 1.44272 21.0207 1.70813C21.0207 1.97355 20.9101 2.22809 20.7133 2.4158L2.89476 19.4018C2.79798 19.4975 2.68217 19.5738 2.55411 19.6264C2.42604 19.6789 2.28828 19.7066 2.14887 19.7079C2.00945 19.7091 1.87117 19.6839 1.74209 19.6336C1.61301 19.5834 1.49573 19.5091 1.39707 19.4152C1.29841 19.3213 1.22037 19.2096 1.16748 19.0866C1.11459 18.9637 1.08793 18.8319 1.08904 18.699C1.09015 18.5661 1.11902 18.4347 1.17396 18.3126C1.22889 18.1904 1.3088 18.0799 1.40901 17.9875L19.2275 1.00146C19.325 0.9084 19.4408 0.834572 19.5683 0.7842C19.6958 0.733828 19.8324 0.707901 19.9704 0.707901C20.1084 0.707901 20.245 0.733828 20.3725 0.7842C20.4999 0.834572 20.6157 0.907399 20.7133 1.00046Z" fill="#697077"/>
</svg>
