<svg width="24" height="25" viewBox="0 0 24 25" fill="none" xmlns="http://www.w3.org/2000/svg">
<path d="M20 12.5C20 10.69 16.24 8.515 11.993 8.5C7.775 8.485 4 10.678 4 12.5C4 14.325 7.754 16.506 11.997 16.5C16.252 16.494 20 14.32 20 12.5ZM12 18.5C6.958 18.507 2 15.814 2 12.5C2 9.186 6.984 6.483 12 6.5C17.016 6.517 22 9.186 22 12.5C22 15.814 17.042 18.493 12 18.5ZM12 16.5C10.9391 16.5 9.92172 16.0786 9.17157 15.3284C8.42143 14.5783 8 13.5609 8 12.5C8 11.4391 8.42143 10.4217 9.17157 9.67157C9.92172 8.92143 10.9391 8.5 12 8.5C13.0609 8.5 14.0783 8.92143 14.8284 9.67157C15.5786 10.4217 16 11.4391 16 12.5C16 13.5609 15.5786 14.5783 14.8284 15.3284C14.0783 16.0786 13.0609 16.5 12 16.5ZM12 14.5C12.5304 14.5 13.0391 14.2893 13.4142 13.9142C13.7893 13.5391 14 13.0304 14 12.5C14 11.9696 13.7893 11.4609 13.4142 11.0858C13.0391 10.7107 12.5304 10.5 12 10.5C11.4696 10.5 10.9609 10.7107 10.5858 11.0858C10.2107 11.4609 10 11.9696 10 12.5C10 13.0304 10.2107 13.5391 10.5858 13.9142C10.9609 14.2893 11.4696 14.5 12 14.5Z" fill="#697077"/>
</svg>
