<svg width="25" height="25" viewBox="0 0 25 25" fill="none" xmlns="http://www.w3.org/2000/svg">
<path d="M17.623 13.127C17.598 10.594 19.689 9.379 19.782 9.319C18.607 7.599 16.777 7.364 16.125 7.337C14.568 7.179 13.086 8.254 12.295 8.254C11.507 8.254 10.287 7.36 8.99501 7.384C7.29901 7.409 5.73401 8.37 4.86001 9.89C3.09601 12.95 4.40801 17.485 6.12701 19.967C6.96701 21.182 7.96901 22.547 9.28401 22.497C10.55 22.447 11.029 21.678 12.56 21.678C14.091 21.678 14.522 22.498 15.862 22.473C17.225 22.447 18.088 21.234 18.922 20.016C19.887 18.606 20.284 17.241 20.308 17.171C20.278 17.158 17.65 16.151 17.624 13.126L17.623 13.127ZM15.105 5.694C15.803 4.847 16.274 3.672 16.145 2.5C15.14 2.54 13.921 3.17 13.2 4.015C12.553 4.765 11.986 5.96 12.138 7.109C13.26 7.197 14.406 6.539 15.105 5.694V5.694Z" fill="#283618"/>
</svg>
