<svg width="268" height="24" viewBox="0 0 268 24" fill="none" xmlns="http://www.w3.org/2000/svg">
<path d="M174.044 10.657L129.935 6.70704C127.901 6.51844 126.776 6.26584 126.801 6.00364C126.827 5.74144 128.001 5.49063 130.071 5.30522C132.142 5.11981 134.942 5.01465 137.87 5.01237C140.798 5.01009 143.619 5.11088 145.725 5.29304L208.895 10.95C209.935 11.0427 210.761 11.1529 211.325 11.2742C211.888 11.3955 212.178 11.5256 212.178 11.657C212.178 11.7884 211.888 11.9186 211.325 12.0399C210.761 12.1612 209.935 12.2714 208.895 12.364L145.725 18.021C144.695 18.1166 143.463 18.1927 142.1 18.2451C140.738 18.2976 139.273 18.3251 137.79 18.3263C136.307 18.3274 134.837 18.3021 133.464 18.2519C132.092 18.2016 130.845 18.1273 129.797 18.0334C128.748 17.9395 127.919 17.8279 127.358 17.705C126.796 17.5821 126.514 17.4504 126.527 17.3176C126.54 17.1849 126.848 17.0536 127.433 16.9316C128.018 16.8096 128.869 16.6993 129.935 16.607L174.044 12.657H66.9999C64.0383 12.657 61.198 12.5517 59.1039 12.3641C57.0097 12.1766 55.8333 11.9223 55.8333 11.657C55.8333 11.3918 57.0097 11.1375 59.1039 10.9499C61.198 10.7624 64.0383 10.657 66.9999 10.657H174.044V10.657Z" fill="white"/>
</svg>
