<svg width="268" height="24" viewBox="0 0 268 24" fill="none" xmlns="http://www.w3.org/2000/svg">
<path d="M149.633 11.4V6.40002C149.633 6.13481 148.457 5.88045 146.363 5.69292C144.269 5.50538 141.428 5.40002 138.467 5.40002C135.505 5.40002 132.665 5.50538 130.571 5.69292C128.477 5.88045 127.3 6.13481 127.3 6.40002V11.4H71.4667C68.5051 11.4 65.6648 11.5054 63.5707 11.6929C61.4765 11.8805 60.3 12.1348 60.3 12.4C60.3 12.6652 61.4765 12.9196 63.5707 13.1071C65.6648 13.2947 68.5051 13.4 71.4667 13.4H127.3V18.4C127.3 18.6652 128.477 18.9196 130.571 19.1071C132.665 19.2947 135.505 19.4 138.467 19.4C141.428 19.4 144.269 19.2947 146.363 19.1071C148.457 18.9196 149.633 18.6652 149.633 18.4V13.4H205.467C208.428 13.4 211.269 13.2947 213.363 13.1071C215.457 12.9196 216.633 12.6652 216.633 12.4C216.633 12.1348 215.457 11.8805 213.363 11.6929C211.269 11.5054 208.428 11.4 205.467 11.4H149.633Z" fill="white"/>
</svg>
