<svg width="24" height="25" viewBox="0 0 24 25" fill="none" xmlns="http://www.w3.org/2000/svg">
<path d="M6.37601 10.568C6.16326 11.1899 6.05513 11.8427 6.05601 12.5C6.05601 13.234 6.18801 13.937 6.43201 14.586C6.73612 15.3972 7.21381 16.1321 7.83165 16.7393C8.44949 17.3466 9.19256 17.8115 10.0089 18.1015C10.8252 18.3916 11.695 18.4998 12.5575 18.4185C13.42 18.3372 14.2543 18.0684 15.002 17.631H15.003C16.1811 16.9404 17.0862 15.8661 17.567 14.588H12.22V10.632H21.825C22.0734 11.9405 22.0585 13.2854 21.781 14.588C21.3002 16.8399 20.0569 18.8568 18.261 20.298C16.4872 21.7264 14.2774 22.5035 12 22.5C10.283 22.501 8.59464 22.0597 7.09765 21.2187C5.60065 20.3778 4.34547 19.1655 3.45302 17.6986C2.56058 16.2317 2.06095 14.5597 2.00227 12.8437C1.94359 11.1276 2.32785 9.42541 3.11801 7.901C3.96098 6.27291 5.2354 4.90796 6.80189 3.9554C8.36838 3.00284 10.1666 2.49936 12 2.5C14.426 2.5 16.651 3.364 18.383 4.802L15.143 7.454C14.384 6.98164 13.5283 6.68643 12.6395 6.59034C11.7507 6.49424 10.8517 6.59972 10.0093 6.89894C9.16691 7.19816 8.40279 7.68342 7.77376 8.31864C7.14472 8.95386 6.66697 9.7227 6.37601 10.568V10.568Z" fill="#283618"/>
</svg>
