<svg width="221" height="25" viewBox="0 0 221 25" fill="none" xmlns="http://www.w3.org/2000/svg">
<path d="M123.112 11.9V6.89999C123.112 6.63478 122.145 6.38042 120.422 6.19289C118.699 6.00535 116.362 5.89999 113.925 5.89999C111.488 5.89999 109.151 6.00535 107.428 6.19289C105.705 6.38042 104.737 6.63478 104.737 6.89999V11.9H58.8C56.3633 11.9 54.0264 12.0054 52.3034 12.1929C50.5805 12.3804 49.6125 12.6348 49.6125 12.9C49.6125 13.1652 50.5805 13.4196 52.3034 13.6071C54.0264 13.7946 56.3633 13.9 58.8 13.9H104.737V18.9C104.737 19.1652 105.705 19.4196 107.428 19.6071C109.151 19.7946 111.488 19.9 113.925 19.9C116.362 19.9 118.699 19.7946 120.422 19.6071C122.145 19.4196 123.112 19.1652 123.112 18.9V13.9H169.05C171.487 13.9 173.824 13.7946 175.547 13.6071C177.27 13.4196 178.237 13.1652 178.237 12.9C178.237 12.6348 177.27 12.3804 175.547 12.1929C173.824 12.0054 171.487 11.9 169.05 11.9H123.112Z" fill="white"/>
</svg>
