<svg width="25" height="25" viewBox="0 0 25 25" fill="none" xmlns="http://www.w3.org/2000/svg">
<path d="M16.086 11.157L12.136 7.207C11.9538 7.01839 11.853 6.76579 11.8553 6.50359C11.8576 6.2414 11.9628 5.99058 12.1482 5.80518C12.3336 5.61977 12.5844 5.5146 12.8466 5.51232C13.1088 5.51004 13.3614 5.61084 13.55 5.793L19.207 11.45C19.3002 11.5426 19.3741 11.6528 19.4246 11.7741C19.4751 11.8955 19.501 12.0256 19.501 12.157C19.501 12.2884 19.4751 12.4185 19.4246 12.5398C19.3741 12.6612 19.3002 12.7713 19.207 12.864L13.55 18.521C13.4578 18.6165 13.3474 18.6927 13.2254 18.7451C13.1034 18.7975 12.9722 18.8251 12.8394 18.8262C12.7066 18.8274 12.5749 18.8021 12.452 18.7518C12.3291 18.7015 12.2175 18.6273 12.1236 18.5334C12.0297 18.4395 11.9555 18.3278 11.9052 18.2049C11.8549 18.0821 11.8296 17.9504 11.8307 17.8176C11.8319 17.6848 11.8595 17.5536 11.9119 17.4316C11.9643 17.3096 12.0405 17.1992 12.136 17.107L16.086 13.157H6.5C6.23478 13.157 5.98043 13.0516 5.79289 12.8641C5.60536 12.6766 5.5 12.4222 5.5 12.157C5.5 11.8918 5.60536 11.6374 5.79289 11.4499C5.98043 11.2624 6.23478 11.157 6.5 11.157H16.086V11.157Z" fill="#001D6C"/>
</svg>
